<?xml version="1.0" standalone="no"?><!-- Generator: Gravit.io --><svg xmlns="http://www.w3.org/2000/svg" xmlns:xlink="http://www.w3.org/1999/xlink" style="isolation:isolate" viewBox="0 0 93.94 99.5" width="93.94" height="99.5"><defs><clipPath id="_clipPath_WF9unzapzsi3FfVvKbcgYPV3iPJz9iK0"><rect width="93.94" height="99.5"/></clipPath></defs><g clip-path="url(#_clipPath_WF9unzapzsi3FfVvKbcgYPV3iPJz9iK0)"><defs><linearGradient id="_lgradient_3" x1="0" y1="0.5" x2="1" y2="0.5"><stop offset="0%" style="stop-color:#FBFBFB"/><stop offset="100%" style="stop-color:#000000"/></linearGradient><linearGradient id="_lgradient_4" x1="0" y1="0.5" x2="1" y2="0.5"><stop offset="0%" style="stop-color:#FBFBFB"/><stop offset="100%" style="stop-color:#000000"/></linearGradient></defs><g style="mix-blend-mode:normal;" opacity="0.42"><path d="M 19.9 20.5 L 74.98 20.5 C 85.444 20.5 93.94 28.996 93.94 39.46 L 93.94 80.54 C 93.94 91.004 85.444 99.5 74.98 99.5 L 19.9 99.5 C 9.436 99.5 0.94 91.004 0.94 80.54 L 0.94 39.46 C 0.94 28.996 9.436 20.5 19.9 20.5 Z" style="stroke:none;fill:url(#_lgradient_4);stroke-miterlimit:10;"/></g><path d=" M 4.406 77.906 L 4.406 77.906 L 4.406 77.906 Q 4.406 74.156 5.953 71.414 L 5.953 71.414 L 5.953 71.414 Q 7.5 68.672 10.125 66.727 L 10.125 66.727 L 10.125 66.727 Q 12.75 64.781 16.266 63.563 L 16.266 63.563 L 16.266 63.563 Q 19.781 62.344 23.719 61.664 L 23.719 61.664 L 23.719 61.664 Q 27.656 60.984 31.805 60.727 L 31.805 60.727 L 31.805 60.727 Q 35.953 60.469 39.891 60.469 L 39.891 60.469 L 39.891 60.469 Q 42.094 60.469 44.555 60.539 L 44.555 60.539 L 44.555 60.539 Q 47.016 60.609 49.5 60.703 L 49.5 60.703 L 49.5 60.703 Q 49.406 57.328 48.914 54.68 L 48.914 54.68 L 48.914 54.68 Q 48.422 52.031 47.273 50.227 L 47.273 50.227 L 47.273 50.227 Q 46.125 48.422 44.086 47.461 L 44.086 47.461 L 44.086 47.461 Q 42.047 46.5 38.859 46.5 L 38.859 46.5 L 38.859 46.5 Q 36.797 46.5 34.781 47.016 L 34.781 47.016 L 34.781 47.016 Q 32.766 47.531 31.125 48.656 L 31.125 48.656 L 31.125 48.656 Q 29.484 49.781 28.336 51.539 L 28.336 51.539 L 28.336 51.539 Q 27.188 53.297 26.859 55.828 L 26.859 55.828 L 8.063 53.25 L 8.063 53.25 Q 8.063 50.063 9.352 47.555 L 9.352 47.555 L 9.352 47.555 Q 10.641 45.047 12.891 43.148 L 12.891 43.148 L 12.891 43.148 Q 15.141 41.25 18.211 39.938 L 18.211 39.938 L 18.211 39.938 Q 21.281 38.625 24.82 37.828 L 24.82 37.828 L 24.82 37.828 Q 28.359 37.031 32.227 36.656 L 32.227 36.656 L 32.227 36.656 Q 36.094 36.281 39.938 36.281 L 39.938 36.281 L 39.938 36.281 Q 44.578 36.281 48.82 36.68 L 48.82 36.68 L 48.82 36.68 Q 53.063 37.078 56.719 38.109 L 56.719 38.109 L 56.719 38.109 Q 60.375 39.141 63.352 40.875 L 63.352 40.875 L 63.352 40.875 Q 66.328 42.609 68.438 45.281 L 68.438 45.281 L 68.438 45.281 Q 70.547 47.953 71.695 51.656 L 71.695 51.656 L 71.695 51.656 Q 72.844 55.359 72.844 60.281 L 72.844 60.281 L 72.844 76.781 L 72.844 76.781 Q 72.844 80.531 74.695 82.031 L 74.695 82.031 L 74.695 82.031 Q 76.547 83.531 79.734 83.531 L 79.734 83.531 L 79.734 88.922 L 79.734 88.922 Q 79.313 89.344 78.305 89.836 L 78.305 89.836 L 78.305 89.836 Q 77.297 90.328 75.68 90.773 L 75.68 90.773 L 75.68 90.773 Q 74.063 91.219 71.859 91.523 L 71.859 91.523 L 71.859 91.523 Q 69.656 91.828 66.797 91.828 L 66.797 91.828 L 66.797 91.828 Q 63.328 91.828 60.563 91.477 L 60.563 91.477 L 60.563 91.477 Q 57.797 91.125 55.758 90.258 L 55.758 90.258 L 55.758 90.258 Q 53.719 89.391 52.359 87.891 L 52.359 87.891 L 52.359 87.891 Q 51 86.391 50.297 84.094 L 50.297 84.094 L 50.297 84.094 Q 47.953 86.156 45 87.609 L 45 87.609 L 45 87.609 Q 42.047 89.063 38.742 90 L 38.742 90 L 38.742 90 Q 35.438 90.938 31.945 91.383 L 31.945 91.383 L 31.945 91.383 Q 28.453 91.828 25.078 91.828 L 25.078 91.828 L 25.078 91.828 Q 22.828 91.828 20.438 91.594 L 20.438 91.594 L 20.438 91.594 Q 18.047 91.359 15.75 90.773 L 15.75 90.773 L 15.75 90.773 Q 13.453 90.188 11.391 89.18 L 11.391 89.18 L 11.391 89.18 Q 9.328 88.172 7.781 86.625 L 7.781 86.625 L 7.781 86.625 Q 6.234 85.078 5.32 82.922 L 5.32 82.922 L 5.32 82.922 Q 4.406 80.766 4.406 77.906 Z  M 28.641 75.844 L 28.641 75.844 L 28.641 75.844 Q 28.641 77.109 29.297 78.141 L 29.297 78.141 L 29.297 78.141 Q 29.953 79.172 31.078 79.875 L 31.078 79.875 L 31.078 79.875 Q 32.203 80.578 33.703 80.953 L 33.703 80.953 L 33.703 80.953 Q 35.203 81.328 36.891 81.328 L 36.891 81.328 L 36.891 81.328 Q 38.625 81.328 40.734 80.93 L 40.734 80.93 L 40.734 80.93 Q 42.844 80.531 44.742 79.594 L 44.742 79.594 L 44.742 79.594 Q 46.641 78.656 48 77.133 L 48 77.133 L 48 77.133 Q 49.359 75.609 49.547 73.406 L 49.547 73.406 L 49.547 68.625 L 49.547 68.625 Q 48.891 68.578 48.305 68.578 L 48.305 68.578 L 48.305 68.578 Q 47.719 68.578 47.203 68.578 L 47.203 68.578 L 47.203 68.578 Q 42.188 68.578 38.672 69.07 L 38.672 69.07 L 38.672 69.07 Q 35.156 69.563 32.93 70.5 L 32.93 70.5 L 32.93 70.5 Q 30.703 71.438 29.672 72.797 L 29.672 72.797 L 29.672 72.797 Q 28.641 74.156 28.641 75.844 Z " fill-rule="evenodd" fill="rgb(0,0,0)"/></g></svg>