<?xml version="1.0" standalone="no"?><!-- Generator: Gravit.io --><svg xmlns="http://www.w3.org/2000/svg" xmlns:xlink="http://www.w3.org/1999/xlink" style="isolation:isolate" viewBox="0 0 421 110" width="421" height="110"><defs><clipPath id="_clipPath_fAoD541VRUpoc9ojQI3bZ7hCktJW0uk9"><rect width="421" height="110"/></clipPath></defs><g clip-path="url(#_clipPath_fAoD541VRUpoc9ojQI3bZ7hCktJW0uk9)"><g opacity="0.42"><linearGradient id="_lgradient_2" x1="0%" y1="50%" x2="100%" y2="50%"><stop offset="0%" stop-opacity="1" style="stop-color:rgb(251,251,251)"/><stop offset="70.43010752688173%" stop-opacity="1" style="stop-color:rgb(74,74,74)"/><stop offset="100%" stop-opacity="1" style="stop-color:rgb(0,0,0)"/></linearGradient><path d=" M 18.96 14 L 74.04 14 C 84.504 14 93 22.496 93 32.96 L 93 74.04 C 93 84.504 84.504 93 74.04 93 L 18.96 93 C 8.496 93 0 84.504 0 74.04 L 0 32.96 C 0 22.496 8.496 14 18.96 14 Z " fill="url(#_lgradient_2)"/></g><path d=" M 4.406 77.906 L 4.406 77.906 L 4.406 77.906 Q 4.406 74.156 5.953 71.414 L 5.953 71.414 L 5.953 71.414 Q 7.5 68.672 10.125 66.727 L 10.125 66.727 L 10.125 66.727 Q 12.75 64.781 16.266 63.563 L 16.266 63.563 L 16.266 63.563 Q 19.781 62.344 23.719 61.664 L 23.719 61.664 L 23.719 61.664 Q 27.656 60.984 31.805 60.727 L 31.805 60.727 L 31.805 60.727 Q 35.953 60.469 39.891 60.469 L 39.891 60.469 L 39.891 60.469 Q 42.094 60.469 44.555 60.539 L 44.555 60.539 L 44.555 60.539 Q 47.016 60.609 49.5 60.703 L 49.5 60.703 L 49.5 60.703 Q 49.406 57.328 48.914 54.68 L 48.914 54.68 L 48.914 54.68 Q 48.422 52.031 47.273 50.227 L 47.273 50.227 L 47.273 50.227 Q 46.125 48.422 44.086 47.461 L 44.086 47.461 L 44.086 47.461 Q 42.047 46.5 38.859 46.5 L 38.859 46.5 L 38.859 46.5 Q 36.797 46.5 34.781 47.016 L 34.781 47.016 L 34.781 47.016 Q 32.766 47.531 31.125 48.656 L 31.125 48.656 L 31.125 48.656 Q 29.484 49.781 28.336 51.539 L 28.336 51.539 L 28.336 51.539 Q 27.188 53.297 26.859 55.828 L 26.859 55.828 L 8.063 53.25 L 8.063 53.25 Q 8.063 50.063 9.352 47.555 L 9.352 47.555 L 9.352 47.555 Q 10.641 45.047 12.891 43.148 L 12.891 43.148 L 12.891 43.148 Q 15.141 41.25 18.211 39.938 L 18.211 39.938 L 18.211 39.938 Q 21.281 38.625 24.82 37.828 L 24.82 37.828 L 24.82 37.828 Q 28.359 37.031 32.227 36.656 L 32.227 36.656 L 32.227 36.656 Q 36.094 36.281 39.938 36.281 L 39.938 36.281 L 39.938 36.281 Q 44.578 36.281 48.82 36.68 L 48.82 36.68 L 48.82 36.68 Q 53.063 37.078 56.719 38.109 L 56.719 38.109 L 56.719 38.109 Q 60.375 39.141 63.352 40.875 L 63.352 40.875 L 63.352 40.875 Q 66.328 42.609 68.438 45.281 L 68.438 45.281 L 68.438 45.281 Q 70.547 47.953 71.695 51.656 L 71.695 51.656 L 71.695 51.656 Q 72.844 55.359 72.844 60.281 L 72.844 60.281 L 72.844 76.781 L 72.844 76.781 Q 72.844 80.531 74.695 82.031 L 74.695 82.031 L 74.695 82.031 Q 76.547 83.531 79.734 83.531 L 79.734 83.531 L 79.734 88.922 L 79.734 88.922 Q 79.313 89.344 78.305 89.836 L 78.305 89.836 L 78.305 89.836 Q 77.297 90.328 75.68 90.773 L 75.68 90.773 L 75.68 90.773 Q 74.063 91.219 71.859 91.523 L 71.859 91.523 L 71.859 91.523 Q 69.656 91.828 66.797 91.828 L 66.797 91.828 L 66.797 91.828 Q 63.328 91.828 60.563 91.477 L 60.563 91.477 L 60.563 91.477 Q 57.797 91.125 55.758 90.258 L 55.758 90.258 L 55.758 90.258 Q 53.719 89.391 52.359 87.891 L 52.359 87.891 L 52.359 87.891 Q 51 86.391 50.297 84.094 L 50.297 84.094 L 50.297 84.094 Q 47.953 86.156 45 87.609 L 45 87.609 L 45 87.609 Q 42.047 89.063 38.742 90 L 38.742 90 L 38.742 90 Q 35.438 90.938 31.945 91.383 L 31.945 91.383 L 31.945 91.383 Q 28.453 91.828 25.078 91.828 L 25.078 91.828 L 25.078 91.828 Q 22.828 91.828 20.438 91.594 L 20.438 91.594 L 20.438 91.594 Q 18.047 91.359 15.75 90.773 L 15.75 90.773 L 15.75 90.773 Q 13.453 90.188 11.391 89.18 L 11.391 89.18 L 11.391 89.18 Q 9.328 88.172 7.781 86.625 L 7.781 86.625 L 7.781 86.625 Q 6.234 85.078 5.32 82.922 L 5.32 82.922 L 5.32 82.922 Q 4.406 80.766 4.406 77.906 Z  M 28.641 75.844 L 28.641 75.844 L 28.641 75.844 Q 28.641 77.109 29.297 78.141 L 29.297 78.141 L 29.297 78.141 Q 29.953 79.172 31.078 79.875 L 31.078 79.875 L 31.078 79.875 Q 32.203 80.578 33.703 80.953 L 33.703 80.953 L 33.703 80.953 Q 35.203 81.328 36.891 81.328 L 36.891 81.328 L 36.891 81.328 Q 38.625 81.328 40.734 80.93 L 40.734 80.93 L 40.734 80.93 Q 42.844 80.531 44.742 79.594 L 44.742 79.594 L 44.742 79.594 Q 46.641 78.656 48 77.133 L 48 77.133 L 48 77.133 Q 49.359 75.609 49.547 73.406 L 49.547 73.406 L 49.547 68.625 L 49.547 68.625 Q 48.891 68.578 48.305 68.578 L 48.305 68.578 L 48.305 68.578 Q 47.719 68.578 47.203 68.578 L 47.203 68.578 L 47.203 68.578 Q 42.188 68.578 38.672 69.07 L 38.672 69.07 L 38.672 69.07 Q 35.156 69.563 32.93 70.5 L 32.93 70.5 L 32.93 70.5 Q 30.703 71.438 29.672 72.797 L 29.672 72.797 L 29.672 72.797 Q 28.641 74.156 28.641 75.844 Z  M 84.563 90 L 97.266 78.563 L 97.266 27.656 L 84.984 17.156 L 119.156 15.75 L 119.156 62.063 L 136.734 48.516 L 128.906 38.109 L 165.563 38.109 L 139.359 58.172 L 162.281 83.25 L 170.906 90 L 130.031 90 L 134.906 83.156 L 123.797 70.125 L 119.156 73.688 L 119.156 79.969 L 126.844 90 L 84.563 90 L 84.563 90 Z  M 171.797 90 L 184.5 78.563 L 184.5 27.656 L 172.219 17.156 L 206.859 15.75 L 206.859 46.781 L 206.859 46.781 Q 210.188 41.438 215.602 38.859 L 215.602 38.859 L 215.602 38.859 Q 221.016 36.281 227.859 36.281 L 227.859 36.281 L 227.859 36.281 Q 235.125 36.281 240.68 38.508 L 240.68 38.508 L 240.68 38.508 Q 246.234 40.734 249.984 44.602 L 249.984 44.602 L 249.984 44.602 Q 253.734 48.469 255.656 53.625 L 255.656 53.625 L 255.656 53.625 Q 257.578 58.781 257.578 64.688 L 257.578 64.688 L 257.578 64.688 Q 257.578 69.938 255.891 74.836 L 255.891 74.836 L 255.891 74.836 Q 254.203 79.734 250.641 83.508 L 250.641 83.508 L 250.641 83.508 Q 247.078 87.281 241.523 89.555 L 241.523 89.555 L 241.523 89.555 Q 235.969 91.828 228.188 91.828 L 228.188 91.828 L 228.188 91.828 Q 221.063 91.828 215.625 89.367 L 215.625 89.367 L 215.625 89.367 Q 210.188 86.906 206.859 81.703 L 206.859 81.703 L 206.859 90 L 171.797 90 L 171.797 90 Z  M 206.859 64.078 L 206.859 64.078 L 206.859 64.078 Q 206.859 68.297 208.008 71.25 L 208.008 71.25 L 208.008 71.25 Q 209.156 74.203 211.008 76.055 L 211.008 76.055 L 211.008 76.055 Q 212.859 77.906 215.18 78.75 L 215.18 78.75 L 215.18 78.75 Q 217.5 79.594 219.891 79.594 L 219.891 79.594 L 219.891 79.594 Q 222.75 79.594 225.141 78.609 L 225.141 78.609 L 225.141 78.609 Q 227.531 77.625 229.266 75.68 L 229.266 75.68 L 229.266 75.68 Q 231 73.734 231.961 70.828 L 231.961 70.828 L 231.961 70.828 Q 232.922 67.922 232.922 64.078 L 232.922 64.078 L 232.922 64.078 Q 232.922 60.234 231.961 57.258 L 231.961 57.258 L 231.961 57.258 Q 231 54.281 229.266 52.242 L 229.266 52.242 L 229.266 52.242 Q 227.531 50.203 225.141 49.172 L 225.141 49.172 L 225.141 49.172 Q 222.75 48.141 219.891 48.141 L 219.891 48.141 L 219.891 48.141 Q 217.359 48.141 215.016 49.008 L 215.016 49.008 L 215.016 49.008 Q 212.672 49.875 210.867 51.773 L 210.867 51.773 L 210.867 51.773 Q 209.063 53.672 207.961 56.695 L 207.961 56.695 L 207.961 56.695 Q 206.859 59.719 206.859 64.078 Z  M 266.672 77.906 L 266.672 77.906 L 266.672 77.906 Q 266.672 74.156 268.219 71.414 L 268.219 71.414 L 268.219 71.414 Q 269.766 68.672 272.391 66.727 L 272.391 66.727 L 272.391 66.727 Q 275.016 64.781 278.531 63.563 L 278.531 63.563 L 278.531 63.563 Q 282.047 62.344 285.984 61.664 L 285.984 61.664 L 285.984 61.664 Q 289.922 60.984 294.07 60.727 L 294.07 60.727 L 294.07 60.727 Q 298.219 60.469 302.156 60.469 L 302.156 60.469 L 302.156 60.469 Q 304.359 60.469 306.82 60.539 L 306.82 60.539 L 306.82 60.539 Q 309.281 60.609 311.766 60.703 L 311.766 60.703 L 311.766 60.703 Q 311.672 57.328 311.18 54.68 L 311.18 54.68 L 311.18 54.68 Q 310.688 52.031 309.539 50.227 L 309.539 50.227 L 309.539 50.227 Q 308.391 48.422 306.352 47.461 L 306.352 47.461 L 306.352 47.461 Q 304.313 46.5 301.125 46.5 L 301.125 46.5 L 301.125 46.5 Q 299.063 46.5 297.047 47.016 L 297.047 47.016 L 297.047 47.016 Q 295.031 47.531 293.391 48.656 L 293.391 48.656 L 293.391 48.656 Q 291.75 49.781 290.602 51.539 L 290.602 51.539 L 290.602 51.539 Q 289.453 53.297 289.125 55.828 L 289.125 55.828 L 270.328 53.25 L 270.328 53.25 Q 270.328 50.063 271.617 47.555 L 271.617 47.555 L 271.617 47.555 Q 272.906 45.047 275.156 43.148 L 275.156 43.148 L 275.156 43.148 Q 277.406 41.25 280.477 39.938 L 280.477 39.938 L 280.477 39.938 Q 283.547 38.625 287.086 37.828 L 287.086 37.828 L 287.086 37.828 Q 290.625 37.031 294.492 36.656 L 294.492 36.656 L 294.492 36.656 Q 298.359 36.281 302.203 36.281 L 302.203 36.281 L 302.203 36.281 Q 306.844 36.281 311.086 36.68 L 311.086 36.68 L 311.086 36.68 Q 315.328 37.078 318.984 38.109 L 318.984 38.109 L 318.984 38.109 Q 322.641 39.141 325.617 40.875 L 325.617 40.875 L 325.617 40.875 Q 328.594 42.609 330.703 45.281 L 330.703 45.281 L 330.703 45.281 Q 332.813 47.953 333.961 51.656 L 333.961 51.656 L 333.961 51.656 Q 335.109 55.359 335.109 60.281 L 335.109 60.281 L 335.109 76.781 L 335.109 76.781 Q 335.109 80.531 336.961 82.031 L 336.961 82.031 L 336.961 82.031 Q 338.813 83.531 342 83.531 L 342 83.531 L 342 88.922 L 342 88.922 Q 341.578 89.344 340.57 89.836 L 340.57 89.836 L 340.57 89.836 Q 339.563 90.328 337.945 90.773 L 337.945 90.773 L 337.945 90.773 Q 336.328 91.219 334.125 91.523 L 334.125 91.523 L 334.125 91.523 Q 331.922 91.828 329.063 91.828 L 329.063 91.828 L 329.063 91.828 Q 325.594 91.828 322.828 91.477 L 322.828 91.477 L 322.828 91.477 Q 320.063 91.125 318.023 90.258 L 318.023 90.258 L 318.023 90.258 Q 315.984 89.391 314.625 87.891 L 314.625 87.891 L 314.625 87.891 Q 313.266 86.391 312.563 84.094 L 312.563 84.094 L 312.563 84.094 Q 310.219 86.156 307.266 87.609 L 307.266 87.609 L 307.266 87.609 Q 304.313 89.063 301.008 90 L 301.008 90 L 301.008 90 Q 297.703 90.938 294.211 91.383 L 294.211 91.383 L 294.211 91.383 Q 290.719 91.828 287.344 91.828 L 287.344 91.828 L 287.344 91.828 Q 285.094 91.828 282.703 91.594 L 282.703 91.594 L 282.703 91.594 Q 280.313 91.359 278.016 90.773 L 278.016 90.773 L 278.016 90.773 Q 275.719 90.188 273.656 89.18 L 273.656 89.18 L 273.656 89.18 Q 271.594 88.172 270.047 86.625 L 270.047 86.625 L 270.047 86.625 Q 268.5 85.078 267.586 82.922 L 267.586 82.922 L 267.586 82.922 Q 266.672 80.766 266.672 77.906 Z  M 290.906 75.844 L 290.906 75.844 L 290.906 75.844 Q 290.906 77.109 291.563 78.141 L 291.563 78.141 L 291.563 78.141 Q 292.219 79.172 293.344 79.875 L 293.344 79.875 L 293.344 79.875 Q 294.469 80.578 295.969 80.953 L 295.969 80.953 L 295.969 80.953 Q 297.469 81.328 299.156 81.328 L 299.156 81.328 L 299.156 81.328 Q 300.891 81.328 303 80.93 L 303 80.93 L 303 80.93 Q 305.109 80.531 307.008 79.594 L 307.008 79.594 L 307.008 79.594 Q 308.906 78.656 310.266 77.133 L 310.266 77.133 L 310.266 77.133 Q 311.625 75.609 311.813 73.406 L 311.813 73.406 L 311.813 68.625 L 311.813 68.625 Q 311.156 68.578 310.57 68.578 L 310.57 68.578 L 310.57 68.578 Q 309.984 68.578 309.469 68.578 L 309.469 68.578 L 309.469 68.578 Q 304.453 68.578 300.938 69.07 L 300.938 69.07 L 300.938 69.07 Q 297.422 69.563 295.195 70.5 L 295.195 70.5 L 295.195 70.5 Q 292.969 71.438 291.938 72.797 L 291.938 72.797 L 291.938 72.797 Q 290.906 74.156 290.906 75.844 Z  M 347.297 90 L 359.531 78.563 L 359.531 50.016 L 347.25 39.516 L 381.891 38.109 L 381.891 48.047 L 381.891 48.047 Q 383.719 45.141 386.086 42.938 L 386.086 42.938 L 386.086 42.938 Q 388.453 40.734 391.148 39.258 L 391.148 39.258 L 391.148 39.258 Q 393.844 37.781 396.773 37.031 L 396.773 37.031 L 396.773 37.031 Q 399.703 36.281 402.656 36.281 L 402.656 36.281 L 402.656 36.281 Q 406.547 36.281 409.383 37.594 L 409.383 37.594 L 409.383 37.594 Q 412.219 38.906 414.047 41.273 L 414.047 41.273 L 414.047 41.273 Q 415.875 43.641 416.766 46.875 L 416.766 46.875 L 416.766 46.875 Q 417.656 50.109 417.656 53.906 L 417.656 53.906 L 417.656 53.906 Q 417.656 55.125 417.563 56.391 L 417.563 56.391 L 417.563 56.391 Q 417.469 57.656 417.188 58.875 L 417.188 58.875 L 400.078 60.422 L 400.078 60.422 Q 400.266 59.672 400.289 58.992 L 400.289 58.992 L 400.289 58.992 Q 400.313 58.313 400.313 57.656 L 400.313 57.656 L 400.313 57.656 Q 400.313 55.734 399.867 54.141 L 399.867 54.141 L 399.867 54.141 Q 399.422 52.547 398.555 51.398 L 398.555 51.398 L 398.555 51.398 Q 397.688 50.25 396.352 49.617 L 396.352 49.617 L 396.352 49.617 Q 395.016 48.984 393.234 48.984 L 393.234 48.984 L 393.234 48.984 Q 391.359 48.984 389.813 49.734 L 389.813 49.734 L 389.813 49.734 Q 388.266 50.484 387 51.75 L 387 51.75 L 387 51.75 Q 385.734 53.016 384.773 54.68 L 384.773 54.68 L 384.773 54.68 Q 383.813 56.344 383.18 58.148 L 383.18 58.148 L 383.18 58.148 Q 382.547 59.953 382.219 61.781 L 382.219 61.781 L 382.219 61.781 Q 381.891 63.609 381.891 65.203 L 381.891 65.203 L 381.891 78.094 L 398.203 90 L 347.297 90 L 347.297 90 Z " fill-rule="evenodd" fill="rgb(0,0,0)"/></g></svg>