<?xml version="1.0" standalone="no"?><!-- Generator: Gravit.io -->
<svg xmlns="http://www.w3.org/2000/svg" xmlns:xlink="http://www.w3.org/1999/xlink" style="isolation:isolate"
     viewBox="0 0 100 100" width="100" height="100">
    <defs>
        <clipPath id="_clipPath_POc31INSlk43ThXB9PFB9JYTYdyFljB6">
            <rect width="100" height="100"/>
        </clipPath>
    </defs>
    <g clip-path="url(#_clipPath_POc31INSlk43ThXB9PFB9JYTYdyFljB6)">
        <path d=" M 0 48.5 C 0 21.732 22.404 0 50 0 C 77.596 0 100 21.732 100 48.5 C 100 75.268 77.596 97 50 97 C 22.404 97 0 75.268 0 48.5 Z "
              fill="rgb(202,31,31)"/>
        <path d=" M 13.364 64.922 L 13.364 64.922 L 13.364 64.922 Q 13.364 61.797 14.897 59.512 L 14.897 59.512 L 14.897 59.512 Q 16.429 57.227 19.029 55.605 L 19.029 55.605 L 19.029 55.605 Q 21.629 53.984 25.111 52.969 L 25.111 52.969 L 25.111 52.969 Q 28.593 51.953 32.493 51.387 L 32.493 51.387 L 32.493 51.387 Q 36.393 50.82 40.503 50.605 L 40.503 50.605 L 40.503 50.605 Q 44.612 50.391 48.512 50.391 L 48.512 50.391 L 48.512 50.391 Q 50.694 50.391 53.131 50.449 L 53.131 50.449 L 53.131 50.449 Q 55.569 50.508 58.03 50.586 L 58.03 50.586 L 58.03 50.586 Q 57.937 47.773 57.449 45.566 L 57.449 45.566 L 57.449 45.566 Q 56.962 43.359 55.824 41.855 L 55.824 41.855 L 55.824 41.855 Q 54.687 40.352 52.667 39.551 L 52.667 39.551 L 52.667 39.551 Q 50.647 38.75 47.49 38.75 L 47.49 38.75 L 47.49 38.75 Q 45.447 38.75 43.451 39.18 L 43.451 39.18 L 43.451 39.18 Q 41.454 39.609 39.829 40.547 L 39.829 40.547 L 39.829 40.547 Q 38.204 41.484 37.067 42.949 L 37.067 42.949 L 37.067 42.949 Q 35.929 44.414 35.604 46.523 L 35.604 46.523 L 16.986 44.375 L 16.986 44.375 Q 16.986 41.719 18.263 39.629 L 18.263 39.629 L 18.263 39.629 Q 19.54 37.539 21.768 35.957 L 21.768 35.957 L 21.768 35.957 Q 23.997 34.375 27.038 33.281 L 27.038 33.281 L 27.038 33.281 Q 30.079 32.188 33.584 31.523 L 33.584 31.523 L 33.584 31.523 Q 37.09 30.859 40.92 30.547 L 40.92 30.547 L 40.92 30.547 Q 44.751 30.234 48.558 30.234 L 48.558 30.234 L 48.558 30.234 Q 53.155 30.234 57.356 30.566 L 57.356 30.566 L 57.356 30.566 Q 61.558 30.898 65.18 31.758 L 65.18 31.758 L 65.18 31.758 Q 68.801 32.617 71.75 34.063 L 71.75 34.063 L 71.75 34.063 Q 74.698 35.508 76.787 37.734 L 76.787 37.734 L 76.787 37.734 Q 78.877 39.961 80.014 43.047 L 80.014 43.047 L 80.014 43.047 Q 81.152 46.133 81.152 50.234 L 81.152 50.234 L 81.152 63.984 L 81.152 63.984 Q 81.152 67.109 82.986 68.359 L 82.986 68.359 L 82.986 68.359 Q 84.82 69.609 87.977 69.609 L 87.977 69.609 L 87.977 74.102 L 87.977 74.102 Q 87.559 74.453 86.561 74.863 L 86.561 74.863 L 86.561 74.863 Q 85.562 75.273 83.961 75.645 L 83.961 75.645 L 83.961 75.645 Q 82.359 76.016 80.177 76.27 L 80.177 76.27 L 80.177 76.27 Q 77.994 76.523 75.162 76.523 L 75.162 76.523 L 75.162 76.523 Q 71.726 76.523 68.987 76.23 L 68.987 76.23 L 68.987 76.23 Q 66.248 75.938 64.228 75.215 L 64.228 75.215 L 64.228 75.215 Q 62.208 74.492 60.862 73.242 L 60.862 73.242 L 60.862 73.242 Q 59.515 71.992 58.819 70.078 L 58.819 70.078 L 58.819 70.078 Q 56.498 71.797 53.572 73.008 L 53.572 73.008 L 53.572 73.008 Q 50.647 74.219 47.374 75 L 47.374 75 L 47.374 75 Q 44.101 75.781 40.642 76.152 L 40.642 76.152 L 40.642 76.152 Q 37.183 76.523 33.84 76.523 L 33.84 76.523 L 33.84 76.523 Q 31.611 76.523 29.243 76.328 L 29.243 76.328 L 29.243 76.328 Q 26.875 76.133 24.6 75.645 L 24.6 75.645 L 24.6 75.645 Q 22.325 75.156 20.282 74.316 L 20.282 74.316 L 20.282 74.316 Q 18.239 73.477 16.707 72.188 L 16.707 72.188 L 16.707 72.188 Q 15.175 70.898 14.27 69.102 L 14.27 69.102 L 14.27 69.102 Q 13.364 67.305 13.364 64.922 Z  M 37.369 63.203 L 37.369 63.203 L 37.369 63.203 Q 37.369 64.258 38.019 65.117 L 38.019 65.117 L 38.019 65.117 Q 38.669 65.977 39.783 66.563 L 39.783 66.563 L 39.783 66.563 Q 40.897 67.148 42.383 67.461 L 42.383 67.461 L 42.383 67.461 Q 43.869 67.773 45.54 67.773 L 45.54 67.773 L 45.54 67.773 Q 47.258 67.773 49.347 67.441 L 49.347 67.441 L 49.347 67.441 Q 51.437 67.109 53.317 66.328 L 53.317 66.328 L 53.317 66.328 Q 55.197 65.547 56.544 64.277 L 56.544 64.277 L 56.544 64.277 Q 57.89 63.008 58.076 61.172 L 58.076 61.172 L 58.076 57.188 L 58.076 57.188 Q 57.426 57.148 56.846 57.148 L 56.846 57.148 L 56.846 57.148 Q 56.265 57.148 55.755 57.148 L 55.755 57.148 L 55.755 57.148 Q 50.787 57.148 47.304 57.559 L 47.304 57.559 L 47.304 57.559 Q 43.822 57.969 41.617 58.75 L 41.617 58.75 L 41.617 58.75 Q 39.411 59.531 38.39 60.664 L 38.39 60.664 L 38.39 60.664 Q 37.369 61.797 37.369 63.203 Z "
              fill-rule="evenodd" fill="rgb(0,0,0)"/>
    </g>
</svg>