<?xml version="1.0" standalone="no"?><!-- Generator: Gravit.io -->
<svg xmlns="http://www.w3.org/2000/svg" xmlns:xlink="http://www.w3.org/1999/xlink" style="isolation:isolate"
     viewBox="0 0 426 100" width="426" height="100">
    <defs>
        <clipPath id="_clipPath_qw0VWtcCjVfHpToiM3aXs4dMx1yLDfYu">
            <rect width="426" height="100"/>
        </clipPath>
    </defs>
    <g clip-path="url(#_clipPath_qw0VWtcCjVfHpToiM3aXs4dMx1yLDfYu)">
        <path d=" M 0 48.5 C 0 21.732 22.404 0 50 0 C 77.596 0 100 21.732 100 48.5 C 100 75.268 77.596 97 50 97 C 22.404 97 0 75.268 0 48.5 Z "
              fill="rgb(202,31,31)"/>
        <path d=" M 13.364 64.922 L 13.364 64.922 L 13.364 64.922 Q 13.364 61.797 14.897 59.512 L 14.897 59.512 L 14.897 59.512 Q 16.429 57.227 19.029 55.605 L 19.029 55.605 L 19.029 55.605 Q 21.629 53.984 25.111 52.969 L 25.111 52.969 L 25.111 52.969 Q 28.593 51.953 32.493 51.387 L 32.493 51.387 L 32.493 51.387 Q 36.393 50.82 40.503 50.605 L 40.503 50.605 L 40.503 50.605 Q 44.612 50.391 48.512 50.391 L 48.512 50.391 L 48.512 50.391 Q 50.694 50.391 53.131 50.449 L 53.131 50.449 L 53.131 50.449 Q 55.569 50.508 58.03 50.586 L 58.03 50.586 L 58.03 50.586 Q 57.937 47.773 57.449 45.566 L 57.449 45.566 L 57.449 45.566 Q 56.962 43.359 55.824 41.855 L 55.824 41.855 L 55.824 41.855 Q 54.687 40.352 52.667 39.551 L 52.667 39.551 L 52.667 39.551 Q 50.647 38.75 47.49 38.75 L 47.49 38.75 L 47.49 38.75 Q 45.447 38.75 43.451 39.18 L 43.451 39.18 L 43.451 39.18 Q 41.454 39.609 39.829 40.547 L 39.829 40.547 L 39.829 40.547 Q 38.204 41.484 37.067 42.949 L 37.067 42.949 L 37.067 42.949 Q 35.929 44.414 35.604 46.523 L 35.604 46.523 L 16.986 44.375 L 16.986 44.375 Q 16.986 41.719 18.263 39.629 L 18.263 39.629 L 18.263 39.629 Q 19.54 37.539 21.768 35.957 L 21.768 35.957 L 21.768 35.957 Q 23.997 34.375 27.038 33.281 L 27.038 33.281 L 27.038 33.281 Q 30.079 32.188 33.584 31.523 L 33.584 31.523 L 33.584 31.523 Q 37.09 30.859 40.92 30.547 L 40.92 30.547 L 40.92 30.547 Q 44.751 30.234 48.558 30.234 L 48.558 30.234 L 48.558 30.234 Q 53.155 30.234 57.356 30.566 L 57.356 30.566 L 57.356 30.566 Q 61.558 30.898 65.18 31.758 L 65.18 31.758 L 65.18 31.758 Q 68.801 32.617 71.75 34.063 L 71.75 34.063 L 71.75 34.063 Q 74.698 35.508 76.787 37.734 L 76.787 37.734 L 76.787 37.734 Q 78.877 39.961 80.014 43.047 L 80.014 43.047 L 80.014 43.047 Q 81.152 46.133 81.152 50.234 L 81.152 50.234 L 81.152 63.984 L 81.152 63.984 Q 81.152 67.109 82.986 68.359 L 82.986 68.359 L 82.986 68.359 Q 84.82 69.609 87.977 69.609 L 87.977 69.609 L 87.977 74.102 L 87.977 74.102 Q 87.559 74.453 86.561 74.863 L 86.561 74.863 L 86.561 74.863 Q 85.562 75.273 83.961 75.645 L 83.961 75.645 L 83.961 75.645 Q 82.359 76.016 80.177 76.27 L 80.177 76.27 L 80.177 76.27 Q 77.994 76.523 75.162 76.523 L 75.162 76.523 L 75.162 76.523 Q 71.726 76.523 68.987 76.23 L 68.987 76.23 L 68.987 76.23 Q 66.248 75.938 64.228 75.215 L 64.228 75.215 L 64.228 75.215 Q 62.208 74.492 60.862 73.242 L 60.862 73.242 L 60.862 73.242 Q 59.515 71.992 58.819 70.078 L 58.819 70.078 L 58.819 70.078 Q 56.498 71.797 53.572 73.008 L 53.572 73.008 L 53.572 73.008 Q 50.647 74.219 47.374 75 L 47.374 75 L 47.374 75 Q 44.101 75.781 40.642 76.152 L 40.642 76.152 L 40.642 76.152 Q 37.183 76.523 33.84 76.523 L 33.84 76.523 L 33.84 76.523 Q 31.611 76.523 29.243 76.328 L 29.243 76.328 L 29.243 76.328 Q 26.875 76.133 24.6 75.645 L 24.6 75.645 L 24.6 75.645 Q 22.325 75.156 20.282 74.316 L 20.282 74.316 L 20.282 74.316 Q 18.239 73.477 16.707 72.188 L 16.707 72.188 L 16.707 72.188 Q 15.175 70.898 14.27 69.102 L 14.27 69.102 L 14.27 69.102 Q 13.364 67.305 13.364 64.922 Z  M 37.369 63.203 L 37.369 63.203 L 37.369 63.203 Q 37.369 64.258 38.019 65.117 L 38.019 65.117 L 38.019 65.117 Q 38.669 65.977 39.783 66.563 L 39.783 66.563 L 39.783 66.563 Q 40.897 67.148 42.383 67.461 L 42.383 67.461 L 42.383 67.461 Q 43.869 67.773 45.54 67.773 L 45.54 67.773 L 45.54 67.773 Q 47.258 67.773 49.347 67.441 L 49.347 67.441 L 49.347 67.441 Q 51.437 67.109 53.317 66.328 L 53.317 66.328 L 53.317 66.328 Q 55.197 65.547 56.544 64.277 L 56.544 64.277 L 56.544 64.277 Q 57.89 63.008 58.076 61.172 L 58.076 61.172 L 58.076 57.188 L 58.076 57.188 Q 57.426 57.148 56.846 57.148 L 56.846 57.148 L 56.846 57.148 Q 56.265 57.148 55.755 57.148 L 55.755 57.148 L 55.755 57.148 Q 50.787 57.148 47.304 57.559 L 47.304 57.559 L 47.304 57.559 Q 43.822 57.969 41.617 58.75 L 41.617 58.75 L 41.617 58.75 Q 39.411 59.531 38.39 60.664 L 38.39 60.664 L 38.39 60.664 Q 37.369 61.797 37.369 63.203 Z  M 92.759 75 L 105.341 65.469 L 105.341 23.047 L 93.177 14.297 L 127.024 13.125 L 127.024 51.719 L 144.435 40.43 L 136.681 31.758 L 172.989 31.758 L 147.035 48.477 L 169.739 69.375 L 178.282 75 L 137.796 75 L 142.624 69.297 L 131.621 58.438 L 127.024 61.406 L 127.024 66.641 L 134.639 75 L 92.759 75 L 92.759 75 Z  M 179.165 75 L 191.747 65.469 L 191.747 23.047 L 179.582 14.297 L 213.894 13.125 L 213.894 38.984 L 213.894 38.984 Q 217.19 34.531 222.553 32.383 L 222.553 32.383 L 222.553 32.383 Q 227.916 30.234 234.694 30.234 L 234.694 30.234 L 234.694 30.234 Q 241.891 30.234 247.393 32.09 L 247.393 32.09 L 247.393 32.09 Q 252.895 33.945 256.609 37.168 L 256.609 37.168 L 256.609 37.168 Q 260.324 40.391 262.227 44.688 L 262.227 44.688 L 262.227 44.688 Q 264.131 48.984 264.131 53.906 L 264.131 53.906 L 264.131 53.906 Q 264.131 58.281 262.459 62.363 L 262.459 62.363 L 262.459 62.363 Q 260.788 66.445 257.259 69.59 L 257.259 69.59 L 257.259 69.59 Q 253.731 72.734 248.229 74.629 L 248.229 74.629 L 248.229 74.629 Q 242.727 76.523 235.019 76.523 L 235.019 76.523 L 235.019 76.523 Q 227.962 76.523 222.576 74.473 L 222.576 74.473 L 222.576 74.473 Q 217.19 72.422 213.894 68.086 L 213.894 68.086 L 213.894 75 L 179.165 75 L 179.165 75 Z  M 213.894 53.398 L 213.894 53.398 L 213.894 53.398 Q 213.894 56.914 215.031 59.375 L 215.031 59.375 L 215.031 59.375 Q 216.169 61.836 218.003 63.379 L 218.003 63.379 L 218.003 63.379 Q 219.837 64.922 222.135 65.625 L 222.135 65.625 L 222.135 65.625 Q 224.433 66.328 226.801 66.328 L 226.801 66.328 L 226.801 66.328 Q 229.634 66.328 232.002 65.508 L 232.002 65.508 L 232.002 65.508 Q 234.369 64.688 236.087 63.066 L 236.087 63.066 L 236.087 63.066 Q 237.805 61.445 238.757 59.023 L 238.757 59.023 L 238.757 59.023 Q 239.709 56.602 239.709 53.398 L 239.709 53.398 L 239.709 53.398 Q 239.709 50.195 238.757 47.715 L 238.757 47.715 L 238.757 47.715 Q 237.805 45.234 236.087 43.535 L 236.087 43.535 L 236.087 43.535 Q 234.369 41.836 232.002 40.977 L 232.002 40.977 L 232.002 40.977 Q 229.634 40.117 226.801 40.117 L 226.801 40.117 L 226.801 40.117 Q 224.294 40.117 221.973 40.84 L 221.973 40.84 L 221.973 40.84 Q 219.651 41.563 217.864 43.145 L 217.864 43.145 L 217.864 43.145 Q 216.076 44.727 214.985 47.246 L 214.985 47.246 L 214.985 47.246 Q 213.894 49.766 213.894 53.398 Z  M 273.138 64.922 L 273.138 64.922 L 273.138 64.922 Q 273.138 61.797 274.67 59.512 L 274.67 59.512 L 274.67 59.512 Q 276.203 57.227 278.803 55.605 L 278.803 55.605 L 278.803 55.605 Q 281.403 53.984 284.885 52.969 L 284.885 52.969 L 284.885 52.969 Q 288.367 51.953 292.267 51.387 L 292.267 51.387 L 292.267 51.387 Q 296.167 50.82 300.276 50.605 L 300.276 50.605 L 300.276 50.605 Q 304.385 50.391 308.285 50.391 L 308.285 50.391 L 308.285 50.391 Q 310.468 50.391 312.905 50.449 L 312.905 50.449 L 312.905 50.449 Q 315.343 50.508 317.803 50.586 L 317.803 50.586 L 317.803 50.586 Q 317.711 47.773 317.223 45.566 L 317.223 45.566 L 317.223 45.566 Q 316.736 43.359 315.598 41.855 L 315.598 41.855 L 315.598 41.855 Q 314.461 40.352 312.441 39.551 L 312.441 39.551 L 312.441 39.551 Q 310.421 38.75 307.264 38.75 L 307.264 38.75 L 307.264 38.75 Q 305.221 38.75 303.225 39.18 L 303.225 39.18 L 303.225 39.18 Q 301.228 39.609 299.603 40.547 L 299.603 40.547 L 299.603 40.547 Q 297.978 41.484 296.841 42.949 L 296.841 42.949 L 296.841 42.949 Q 295.703 44.414 295.378 46.523 L 295.378 46.523 L 276.76 44.375 L 276.76 44.375 Q 276.76 41.719 278.037 39.629 L 278.037 39.629 L 278.037 39.629 Q 279.313 37.539 281.542 35.957 L 281.542 35.957 L 281.542 35.957 Q 283.771 34.375 286.812 33.281 L 286.812 33.281 L 286.812 33.281 Q 289.853 32.188 293.358 31.523 L 293.358 31.523 L 293.358 31.523 Q 296.864 30.859 300.694 30.547 L 300.694 30.547 L 300.694 30.547 Q 304.525 30.234 308.332 30.234 L 308.332 30.234 L 308.332 30.234 Q 312.928 30.234 317.13 30.566 L 317.13 30.566 L 317.13 30.566 Q 321.332 30.898 324.954 31.758 L 324.954 31.758 L 324.954 31.758 Q 328.575 32.617 331.523 34.063 L 331.523 34.063 L 331.523 34.063 Q 334.472 35.508 336.561 37.734 L 336.561 37.734 L 336.561 37.734 Q 338.65 39.961 339.788 43.047 L 339.788 43.047 L 339.788 43.047 Q 340.925 46.133 340.925 50.234 L 340.925 50.234 L 340.925 63.984 L 340.925 63.984 Q 340.925 67.109 342.759 68.359 L 342.759 68.359 L 342.759 68.359 Q 344.593 69.609 347.751 69.609 L 347.751 69.609 L 347.751 74.102 L 347.751 74.102 Q 347.333 74.453 346.334 74.863 L 346.334 74.863 L 346.334 74.863 Q 345.336 75.273 343.734 75.645 L 343.734 75.645 L 343.734 75.645 Q 342.133 76.016 339.95 76.27 L 339.95 76.27 L 339.95 76.27 Q 337.768 76.523 334.936 76.523 L 334.936 76.523 L 334.936 76.523 Q 331.5 76.523 328.761 76.23 L 328.761 76.23 L 328.761 76.23 Q 326.022 75.938 324.002 75.215 L 324.002 75.215 L 324.002 75.215 Q 321.982 74.492 320.636 73.242 L 320.636 73.242 L 320.636 73.242 Q 319.289 71.992 318.593 70.078 L 318.593 70.078 L 318.593 70.078 Q 316.271 71.797 313.346 73.008 L 313.346 73.008 L 313.346 73.008 Q 310.421 74.219 307.148 75 L 307.148 75 L 307.148 75 Q 303.875 75.781 300.416 76.152 L 300.416 76.152 L 300.416 76.152 Q 296.957 76.523 293.614 76.523 L 293.614 76.523 L 293.614 76.523 Q 291.385 76.523 289.017 76.328 L 289.017 76.328 L 289.017 76.328 Q 286.649 76.133 284.374 75.645 L 284.374 75.645 L 284.374 75.645 Q 282.099 75.156 280.056 74.316 L 280.056 74.316 L 280.056 74.316 Q 278.013 73.477 276.481 72.188 L 276.481 72.188 L 276.481 72.188 Q 274.949 70.898 274.044 69.102 L 274.044 69.102 L 274.044 69.102 Q 273.138 67.305 273.138 64.922 Z  M 297.142 63.203 L 297.142 63.203 L 297.142 63.203 Q 297.142 64.258 297.792 65.117 L 297.792 65.117 L 297.792 65.117 Q 298.442 65.977 299.557 66.563 L 299.557 66.563 L 299.557 66.563 Q 300.671 67.148 302.157 67.461 L 302.157 67.461 L 302.157 67.461 Q 303.642 67.773 305.314 67.773 L 305.314 67.773 L 305.314 67.773 Q 307.032 67.773 309.121 67.441 L 309.121 67.441 L 309.121 67.441 Q 311.21 67.109 313.091 66.328 L 313.091 66.328 L 313.091 66.328 Q 314.971 65.547 316.318 64.277 L 316.318 64.277 L 316.318 64.277 Q 317.664 63.008 317.85 61.172 L 317.85 61.172 L 317.85 57.188 L 317.85 57.188 Q 317.2 57.148 316.62 57.148 L 316.62 57.148 L 316.62 57.148 Q 316.039 57.148 315.528 57.148 L 315.528 57.148 L 315.528 57.148 Q 310.56 57.148 307.078 57.559 L 307.078 57.559 L 307.078 57.559 Q 303.596 57.969 301.391 58.75 L 301.391 58.75 L 301.391 58.75 Q 299.185 59.531 298.164 60.664 L 298.164 60.664 L 298.164 60.664 Q 297.142 61.797 297.142 63.203 Z  M 352.997 75 L 365.115 65.469 L 365.115 41.68 L 352.951 32.93 L 387.262 31.758 L 387.262 40.039 L 387.262 40.039 Q 389.073 37.617 391.418 35.781 L 391.418 35.781 L 391.418 35.781 Q 393.762 33.945 396.432 32.715 L 396.432 32.715 L 396.432 32.715 Q 399.102 31.484 402.004 30.859 L 402.004 30.859 L 402.004 30.859 Q 404.905 30.234 407.831 30.234 L 407.831 30.234 L 407.831 30.234 Q 411.684 30.234 414.493 31.328 L 414.493 31.328 L 414.493 31.328 Q 417.302 32.422 419.113 34.395 L 419.113 34.395 L 419.113 34.395 Q 420.924 36.367 421.806 39.063 L 421.806 39.063 L 421.806 39.063 Q 422.688 41.758 422.688 44.922 L 422.688 44.922 L 422.688 44.922 Q 422.688 45.938 422.595 46.992 L 422.595 46.992 L 422.595 46.992 Q 422.502 48.047 422.224 49.063 L 422.224 49.063 L 405.277 50.352 L 405.277 50.352 Q 405.463 49.727 405.486 49.16 L 405.486 49.16 L 405.486 49.16 Q 405.509 48.594 405.509 48.047 L 405.509 48.047 L 405.509 48.047 Q 405.509 46.445 405.068 45.117 L 405.068 45.117 L 405.068 45.117 Q 404.627 43.789 403.768 42.832 L 403.768 42.832 L 403.768 42.832 Q 402.909 41.875 401.586 41.348 L 401.586 41.348 L 401.586 41.348 Q 400.263 40.82 398.498 40.82 L 398.498 40.82 L 398.498 40.82 Q 396.641 40.82 395.109 41.445 L 395.109 41.445 L 395.109 41.445 Q 393.577 42.07 392.323 43.125 L 392.323 43.125 L 392.323 43.125 Q 391.069 44.18 390.118 45.566 L 390.118 45.566 L 390.118 45.566 Q 389.166 46.953 388.539 48.457 L 388.539 48.457 L 388.539 48.457 Q 387.912 49.961 387.587 51.484 L 387.587 51.484 L 387.587 51.484 Q 387.262 53.008 387.262 54.336 L 387.262 54.336 L 387.262 65.078 L 403.42 75 L 352.997 75 L 352.997 75 Z "
              fill-rule="evenodd" fill="rgb(0,0,0)"/>
    </g>
</svg>